# xmcd
#
# Track frame offsets: 
#        150
#        11440
#        23375
#        35660
#        45990
#        58767
#        76325
#        90445
#        102825
#        115395
#        127840
#        143390
#        154305
#        164930
#        179162
#
# Disc length: 2561 seconds
#
# Revision: 1
# Processed by: cddbd v1.5.2PL0 Copyright (c) Steve Scherf et al.
# Submitted via: ExactAudioCopy v0.99pb5
#
DISCID=b909ff0f
DTITLE=Various Artist - Living the Blues: Texas and West Coast Blues 1945-1971 
DTITLE=CD1
DYEAR=1971
DGENRE=Blues
TTITLE0=T-Bone Walker - The Hustle Is On
TTITLE1=Amos Milburn - Let's Rock Awhile
TTITLE2=Big 'Mama' Thornton - You Don't Move Me No More
TTITLE3=Lester Williams - Can't Lose With The Stuff I Use
TTITLE4=Percy Mayfield - Strange Things'Happening
TTITLE5=Little Johnny Taylo - Part Time Love
TTITLE6=Pee Wee Crayton - I'm Your Prisoner
TTITLE7=Bobby Bland - It's My Life Baby
TTITLE8=Lil' Son Jackson - Rockin' and Rollin'
TTITLE9=Clarence 'Gatemouth' Brown - Guitar In My Hand
TTITLE10=Albert Collins - Got A Good Thing Goin'
TTITLE11=Lightnin' Hopkins - Short Haired Woman
TTITLE12=Freddie King - You Know That You Love Me
TTITLE13=Charles Brown - Did You Ever Love A Woman
TTITLE14=Big Joe Turner - Roll 'Em Pete
EXTD=
EXTT0=
EXTT1=
EXTT2=
EXTT3=
EXTT4=
EXTT5=
EXTT6=
EXTT7=
EXTT8=
EXTT9=
EXTT10=
EXTT11=
EXTT12=
EXTT13=
EXTT14=
PLAYORDER=
